<svg xmlns="http://www.w3.org/2000/svg" width="60" height="60" viewBox="0 0 60 60">
    <g fill="none" fill-rule="evenodd">
        <rect width="60" height="60" fill="#000" rx="1"/>
        <path fill="#FFF" d="M10.448 12.96l2.266 9.08h.106l2.346-9.08h2.688l2.346 9.107h.106l2.267-9.107h2.767l-3.426 13.516h-3.11l-2.241-8.474h-.106l-2.24 8.474h-3.11L7.68 12.96h2.768zm25.316 13.516l-2.425-4.963h-1.766v4.963h-3.057V12.96h5.192c1.595 0 2.802.374 3.621 1.122.82.748 1.23 1.782 1.23 3.102 0 .946-.207 1.723-.62 2.333a4.46 4.46 0 0 1-1.575 1.435l2.748 5.524h-3.348zm-4.19-10.982v3.511h2.134c.54 0 .979-.142 1.315-.426.336-.283.504-.722.504-1.316 0-.58-.165-1.02-.494-1.32-.33-.3-.771-.449-1.325-.449h-2.135zm19.306 8.447v2.535h-9.015V12.96h9.015v2.534h-5.957v2.957h5.034v2.534h-5.034v2.956h5.957zM21.26 33.82v13.515h-3.004l-4.797-8.315h-.106v8.315h-3.057V33.82h3.03l4.772 8.315h.105V33.82h3.058zm14.616 4.25l-2.952.422c-.198-.713-.533-1.243-1.005-1.59-.473-.348-1.025-.522-1.658-.522-.856 0-1.55.331-2.079.993-.529.663-.794 1.74-.794 3.23 0 1.492.265 2.56.794 3.205.53.644 1.223.967 2.08.967.632 0 1.176-.168 1.63-.502.455-.334.781-.845.979-1.531l2.978.422c-.369 1.4-1.056 2.475-2.062 3.227-1.006.753-2.181 1.129-3.526 1.129-1.142 0-2.162-.272-3.06-.815-.899-.543-1.606-1.33-2.122-2.363-.516-1.031-.775-2.278-.775-3.738 0-1.47.259-2.724.775-3.762.516-1.038 1.223-1.832 2.122-2.382.898-.55 1.918-.825 3.06-.825 1.345 0 2.524.383 3.54 1.148 1.014.766 1.706 1.861 2.075 3.287zm6.233-4.25v5.49h4.85v-5.49h3.057v13.515H46.96v-5.49h-4.85v5.49H39.05V33.82h3.058z"/>
    </g>
</svg>
