<?xml version="1.0" encoding="UTF-8"?>
<svg width="50px" height="40px" viewBox="0 0 50 40" version="1.1" xmlns="http://www.w3.org/2000/svg" xmlns:xlink="http://www.w3.org/1999/xlink">
    <!-- Generator: Sketch 49.2 (51160) - http://www.bohemiancoding.com/sketch -->
    <title>WRE NCH</title>
    <desc>Created with Sketch.</desc>
    <defs></defs>
    <g id="Web" stroke="none" stroke-width="1" fill="none" fill-rule="evenodd">
        <g id="Artboard" transform="translate(-60.000000, -60.000000)" fill="#000000">
            <path d="M63.1961635,60 L65.8139735,70.5102025 L65.9357322,70.5102025 L68.6448612,60 L71.7497057,60 L74.4588347,70.5407554 L74.5805933,70.5407554 L77.1984034,60 L80.3945669,60 L76.4374121,75.6430921 L72.8455332,75.6430921 L70.2581627,65.8356066 L70.1364041,65.8356066 L67.5490337,75.6430921 L63.9571548,75.6430921 L60,60 L63.1961635,60 Z M91.8781983,75.6430921 L89.0777503,69.8991442 L87.0382936,69.8991442 L87.0382936,75.6430921 L83.507294,75.6430921 L83.507294,60 L89.5039054,60 C91.3455136,60 92.7393821,60.4328286 93.6855526,61.2984989 C94.6317232,62.1641691 95.1048014,63.3608129 95.1048014,64.8884663 C95.1048014,65.9832845 94.8663599,66.8833134 94.3894696,67.5885801 C93.9125793,68.2938467 93.306329,68.8476127 92.5707004,69.2498948 L95.7440341,75.6430921 L91.8781983,75.6430921 Z M87.0382936,62.9330798 L87.0382936,66.9966174 L89.5039054,66.9966174 C90.1279214,66.9966174 90.6339756,66.8323971 91.0220831,66.5039516 C91.4101906,66.1755061 91.6042414,65.667569 91.6042414,64.980125 C91.6042414,64.3079575 91.4139955,63.7987474 91.033498,63.4524793 C90.6530004,63.1062112 90.1431413,62.9330798 89.5039054,62.9330798 L87.0382936,62.9330798 Z M109.888726,72.7100123 L109.888726,75.6430921 L99.4783651,75.6430921 L99.4783651,60 L109.888726,60 L109.888726,62.9330798 L103.009365,62.9330798 L103.009365,66.3550062 L108.823338,66.3550062 L108.823338,69.2880859 L103.009365,69.2880859 L103.009365,72.7100123 L109.888726,72.7100123 Z M75.6835648,84.1430375 L75.6835648,99.7861296 L72.2134445,99.7861296 L66.6734278,90.1619616 L66.5516692,90.1619616 L66.5516692,99.7861296 L63.0206696,99.7861296 L63.0206696,84.1430375 L66.5212296,84.1430375 L72.0308066,93.7672055 L72.1525652,93.7672055 L72.1525652,84.1430375 L75.6835648,84.1430375 Z M93.1157393,89.0620567 L89.7064983,89.5509033 C89.4781997,88.7259705 89.0913663,88.1123723 88.5459865,87.7100903 C88.0006067,87.3078082 87.3626487,87.1066702 86.6320934,87.1066702 C85.6427998,87.1066702 84.8424986,87.4898508 84.2311658,88.2562236 C83.6198331,89.0225964 83.3141713,90.2688882 83.3141713,91.9951365 C83.3141713,93.7213848 83.6198331,94.9574924 84.2311658,95.7034964 C84.8424986,96.4495005 85.6427998,96.8224969 86.6320934,96.8224969 C87.3626487,96.8224969 87.9904602,96.6289971 88.5155469,96.2419916 C89.0406335,95.854986 89.4173204,95.2643023 89.6456189,94.4699225 L93.0852996,94.9587692 C92.6591424,96.5780817 91.8651827,97.8231005 90.7033969,98.6938629 C89.541611,99.5646253 88.1845234,100 86.6320934,100 C85.3130352,100 84.1347788,99.6855627 83.0972888,99.0566788 C82.0597988,98.4277948 81.2430096,97.5163087 80.6468968,96.322193 C80.050784,95.1280772 79.752732,93.6857395 79.752732,91.9951365 C79.752732,90.2943491 80.050784,88.8431002 80.6468968,87.6413462 C81.2430096,86.4395922 82.0597988,85.5204679 83.0972888,84.8839457 C84.1347788,84.2474235 85.3130352,83.9291671 86.6320934,83.9291671 C88.1845234,83.9291671 89.5466842,84.3721799 90.7186167,85.2582189 C91.8905491,86.1442578 92.689582,87.4121911 93.1157393,89.0620567 Z M100.868104,84.1430375 L100.868104,90.4980437 L106.469,90.4980437 L106.469,84.1430375 L110,84.1430375 L110,99.7861296 L106.469,99.7861296 L106.469,93.4311234 L100.868104,93.4311234 L100.868104,99.7861296 L97.3371047,99.7861296 L97.3371047,84.1430375 L100.868104,84.1430375 Z" id="WRE-NCH"></path>
        </g>
    </g>
</svg>